<svg xmlns="http://www.w3.org/2000/svg" viewBox="0 0 24 24" fill="none">
  <!-- Outer ring -->
  <circle cx="12" cy="12" r="11" stroke="#C48540" stroke-width="1.2"/>
  <!-- Inner ring -->
  <circle cx="12" cy="12" r="7.8" fill="rgba(13,30,56,0.95)" stroke="#C48540" stroke-width="0.9"/>

  <!-- Dot field: 3 concentric rings, fades toward center -->
  <!-- r≈6, 8 dots — full opacity -->
  <circle cx="18.0" cy="12.0" r="0.65" fill="#C48540"/>
  <circle cx="16.2" cy="16.2" r="0.65" fill="#C48540"/>
  <circle cx="12.0" cy="18.0" r="0.65" fill="#C48540"/>
  <circle cx="7.8"  cy="16.2" r="0.65" fill="#C48540"/>
  <circle cx="6.0"  cy="12.0" r="0.65" fill="#C48540"/>
  <circle cx="7.8"  cy="7.8"  r="0.65" fill="#C48540"/>
  <circle cx="12.0" cy="6.0"  r="0.65" fill="#C48540"/>
  <circle cx="16.2" cy="7.8"  r="0.65" fill="#C48540"/>
  <!-- r≈4.2, 6 dots — mid opacity -->
  <circle cx="16.2" cy="12.0" r="0.60" fill="#C48540" opacity="0.52"/>
  <circle cx="14.1" cy="15.6" r="0.60" fill="#C48540" opacity="0.52"/>
  <circle cx="9.9"  cy="15.6" r="0.60" fill="#C48540" opacity="0.52"/>
  <circle cx="7.8"  cy="12.0" r="0.60" fill="#C48540" opacity="0.52"/>
  <circle cx="9.9"  cy="8.4"  r="0.60" fill="#C48540" opacity="0.52"/>
  <circle cx="14.1" cy="8.4"  r="0.60" fill="#C48540" opacity="0.52"/>
  <!-- r≈2.4, 4 dots — faint -->
  <circle cx="14.4" cy="12.0" r="0.55" fill="#C48540" opacity="0.18"/>
  <circle cx="12.0" cy="14.4" r="0.55" fill="#C48540" opacity="0.18"/>
  <circle cx="9.6"  cy="12.0" r="0.55" fill="#C48540" opacity="0.18"/>
  <circle cx="12.0" cy="9.6"  r="0.55" fill="#C48540" opacity="0.18"/>

  <!-- Plug -->
  <rect x="8.8" y="5.8" width="6.4" height="4.2" rx="0.7"
        fill="#D4A853" fill-opacity="0.14" stroke="#D4A853" stroke-width="0.7"/>
  <line x1="10.4" y1="10.0" x2="10.4" y2="12.1"
        stroke="#D4A853" stroke-width="0.95" stroke-linecap="round"/>
  <line x1="13.6" y1="10.0" x2="13.6" y2="12.1"
        stroke="#D4A853" stroke-width="0.95" stroke-linecap="round"/>
  <line x1="12" y1="12.1" x2="12" y2="13.2"
        stroke="#C48540" stroke-width="0.65" stroke-dasharray="0.9,0.9" opacity="0.85"/>
  <rect x="8.2" y="13.2" width="7.6" height="5.0" rx="0.8"
        fill="rgba(196,133,58,0.09)" stroke="#C48540" stroke-width="0.7"/>
  <rect x="9.2"  y="14.1" width="2.3" height="3.2" rx="0.4" fill="#C48540" opacity="0.92"/>
  <rect x="12.5" y="14.1" width="2.3" height="3.2" rx="0.4" fill="#C48540" opacity="0.92"/>

  <!-- Cardinal rivets -->
  <circle cx="12.0" cy="1.0"  r="0.8" fill="#C48540" opacity="0.65"/>
  <circle cx="23.0" cy="12.0" r="0.8" fill="#C48540" opacity="0.65"/>
  <circle cx="12.0" cy="23.0" r="0.8" fill="#C48540" opacity="0.65"/>
  <circle cx="1.0"  cy="12.0" r="0.8" fill="#C48540" opacity="0.65"/>
</svg>
