<svg xmlns="http://www.w3.org/2000/svg" viewBox="-78 -82 156 152" width="32" height="32" role="img" aria-label="PortDrop">
<path d="M 0.0,-69.0 A 69,69 0 0,1 59.7558,34.5" fill="none" stroke="#10b981" stroke-width="1.8" stroke-linecap="round"/>
<path d="M 59.7558,34.5 A 69,69 0 0,1 -59.7558,34.5" fill="none" stroke="#eab308" stroke-width="1.8" stroke-linecap="round"/>
<path d="M -59.7558,34.5 A 69,69 0 0,1 0.0,-69.0" fill="none" stroke="#ef4444" stroke-width="1.8" stroke-linecap="round"/>
<circle cx="0.0" cy="-69.0" r="3" fill="#10b981"/>
<circle cx="59.7558" cy="34.5" r="3" fill="#eab308"/>
<circle cx="-59.7558" cy="34.5" r="3" fill="#ef4444"/>
<path d="M 0.0,-58.0 A 58,58 0 0,1 50.2295,29.0" fill="none" stroke="#10b981" stroke-width="1.0" stroke-dasharray="6,4" stroke-linecap="round" opacity="0.85"/>
<path d="M 50.2295,29.0 A 58,58 0 0,1 -50.2295,29.0" fill="none" stroke="#eab308" stroke-width="1.0" stroke-dasharray="6,4" stroke-linecap="round" opacity="0.85"/>
<path d="M -50.2295,29.0 A 58,58 0 0,1 0.0,-58.0" fill="none" stroke="#ef4444" stroke-width="1.0" stroke-dasharray="6,4" stroke-linecap="round" opacity="0.85"/>
<circle cx="0.0" cy="-58.0" r="2" fill="#10b981"/>
<circle cx="50.2295" cy="29.0" r="2" fill="#eab308"/>
<circle cx="-50.2295" cy="29.0" r="2" fill="#ef4444"/>
<rect x="-20" y="-42" width="40" height="30" rx="4" fill="none" stroke="#10b981" stroke-width="2.5"/>
<line x1="-10" y1="-12" x2="-10" y2="6" stroke="#eab308" stroke-width="3.5" stroke-linecap="round"/>
<line x1="10" y1="-12" x2="10" y2="6" stroke="#ef4444" stroke-width="3.5" stroke-linecap="round"/>
<rect x="-26" y="10" width="52" height="30" rx="6" fill="none" stroke="#10b981" stroke-width="2.5"/>
<rect x="-14" y="17" width="12" height="16" rx="2" fill="#eab308"/>
<rect x="2" y="17" width="12" height="16" rx="2" fill="#ef4444"/>
</svg>
