<svg xmlns="http://www.w3.org/2000/svg" viewBox="0 0 200 200" width="24" height="24" fill="none">
  <defs>
    <clipPath id="sb-dots"><circle cx="100" cy="100" r="67"/></clipPath>
  </defs>
  <circle cx="100" cy="100" r="94"   fill="none" stroke="#C48540" stroke-width="10"/>
  <circle cx="100" cy="100" r="80.5" fill="#0d1e38" stroke="#C48540" stroke-width="6"/>
  <g clip-path="url(#sb-dots)">
    <circle cx="44"  cy="158" r="8"   fill="#C48540" opacity="0.85"/>
    <circle cx="70"  cy="164" r="8"   fill="#D4A853" opacity="0.85"/>
    <circle cx="100" cy="166" r="8"   fill="#C48540" opacity="0.85"/>
    <circle cx="130" cy="164" r="8"   fill="#D4A853" opacity="0.85"/>
    <circle cx="156" cy="158" r="8"   fill="#C48540" opacity="0.85"/>
    <circle cx="36"  cy="140" r="7"   fill="#C48540" opacity="0.55"/>
    <circle cx="64"  cy="148" r="7"   fill="#D4A853" opacity="0.55"/>
    <circle cx="100" cy="150" r="7"   fill="#C48540" opacity="0.55"/>
    <circle cx="136" cy="148" r="7"   fill="#D4A853" opacity="0.55"/>
    <circle cx="164" cy="140" r="7"   fill="#C48540" opacity="0.55"/>
    <circle cx="30"  cy="120" r="5.5" fill="#C48540" opacity="0.28"/>
    <circle cx="100" cy="133" r="5.5" fill="#C48540" opacity="0.28"/>
    <circle cx="170" cy="120" r="5.5" fill="#C48540" opacity="0.28"/>
    <circle cx="28"  cy="98"  r="4"   fill="#C48540" opacity="0.12"/>
    <circle cx="172" cy="98"  r="4"   fill="#D4A853" opacity="0.12"/>
    <circle cx="32"  cy="76"  r="3"   fill="#C48540" opacity="0.05"/>
    <circle cx="168" cy="76"  r="3"   fill="#D4A853" opacity="0.05"/>
  </g>
  <rect x="60" y="40" width="80" height="26" rx="14"
    fill="#D4A853" fill-opacity="0.14" stroke="#D4A853" stroke-width="7"/>
  <line x1="76"  y1="66" x2="76"  y2="84" stroke="#D4A853" stroke-width="11" stroke-linecap="round"/>
  <line x1="124" y1="66" x2="124" y2="84" stroke="#D4A853" stroke-width="11" stroke-linecap="round"/>
  <line x1="100" y1="92" x2="100" y2="102"
    stroke="#C48540" stroke-width="7" stroke-dasharray="12,10" opacity="0.85"/>
  <rect x="54" y="110" width="92" height="38" rx="20"
    fill="rgba(196,133,58,0.08)" stroke="#C48540" stroke-width="7"/>
  <rect x="66"  y="118" width="20" height="22" rx="10" fill="#C48540" opacity="0.92"/>
  <rect x="114" y="118" width="20" height="22" rx="10" fill="#C48540" opacity="0.92"/>
  <circle cx="100" cy="100" r="80.5" fill="none" stroke="#C48540" stroke-width="6"/>
</svg>
