<svg xmlns="http://www.w3.org/2000/svg" viewBox="-100 -100 200 200" width="48" height="48" role="img" aria-label="PortDrop">
<defs><clipPath id="ic"><circle cx="0" cy="0" r="57"/></clipPath></defs>
<path d="M 0.0,-69.0 A 69,69 0 0,1 59.7558,34.5" fill="none" stroke="#10b981" stroke-width="1.8" stroke-linecap="round"/>
<path d="M 59.7558,34.5 A 69,69 0 0,1 -59.7558,34.5" fill="none" stroke="#eab308" stroke-width="1.8" stroke-linecap="round"/>
<path d="M -59.7558,34.5 A 69,69 0 0,1 0.0,-69.0" fill="none" stroke="#ef4444" stroke-width="1.8" stroke-linecap="round"/>
<circle cx="0.0" cy="-69.0" r="3" fill="#10b981"/>
<circle cx="59.7558" cy="34.5" r="3" fill="#eab308"/>
<circle cx="-59.7558" cy="34.5" r="3" fill="#ef4444"/>
<circle cx="0" cy="0" r="58" fill="#1C3B6B"/>
<g clip-path="url(#ic)">
<circle cx="-15" cy="-52.68" r="0.9" fill="#e24141" opacity="0.928"/>
<circle cx="-10" cy="-52.68" r="0.9" fill="#dc3f40" opacity="0.917"/>
<circle cx="-5" cy="-52.68" r="0.9" fill="#d83e3f" opacity="0.91"/>
<circle cx="0" cy="-52.68" r="0.9" fill="#0fa775" opacity="0.908"/>
<circle cx="5" cy="-52.68" r="0.9" fill="#0fa876" opacity="0.91"/>
<circle cx="10" cy="-52.68" r="0.9" fill="#0fab78" opacity="0.917"/>
<circle cx="15" cy="-52.68" r="0.9" fill="#10af7b" opacity="0.928"/>
<circle cx="-27.5" cy="-48.35" r="0.9" fill="#e74242" opacity="0.937"/>
<circle cx="-22.5" cy="-48.35" r="0.9" fill="#da3f3f" opacity="0.915"/>
<circle cx="-17.5" cy="-48.35" r="0.9" fill="#d03c3d" opacity="0.896"/>
<circle cx="-12.5" cy="-48.35" r="0.9" fill="#c83a3b" opacity="0.882"/>
<circle cx="-7.5" cy="-48.35" r="0.9" fill="#c2393a" opacity="0.873"/>
<circle cx="-2.5" cy="-48.35" r="0.9" fill="#bf3839" opacity="0.868"/>
<circle cx="2.5" cy="-48.35" r="0.9" fill="#0e9569" opacity="0.868"/>
<circle cx="7.5" cy="-48.35" r="0.9" fill="#0e976b" opacity="0.873"/>
<circle cx="12.5" cy="-48.35" r="0.9" fill="#0e9b6e" opacity="0.882"/>
<circle cx="17.5" cy="-48.35" r="0.9" fill="#0fa172" opacity="0.896"/>
<circle cx="22.5" cy="-48.35" r="0.9" fill="#0fa977" opacity="0.915"/>
<circle cx="27.5" cy="-48.35" r="0.9" fill="#10b37d" opacity="0.937"/>
<circle cx="-37.5" cy="-39.69" r="0.9" fill="#e14141" opacity="0.927"/>
<circle cx="-32.5" cy="-39.69" r="0.9" fill="#cf3c3d" opacity="0.895"/>
<circle cx="32.5" cy="-39.69" r="0.9" fill="#0fa171" opacity="0.895"/>
<circle cx="37.5" cy="-39.69" r="0.9" fill="#0faf7a" opacity="0.927"/>
<circle cx="-40" cy="-35.36" r="0.9" fill="#db3f3f" opacity="0.915"/>
<circle cx="-35" cy="-35.36" r="0.9" fill="#c73a3b" opacity="0.881"/>
<circle cx="35" cy="-35.36" r="0.9" fill="#0e9b6d" opacity="0.881"/>
<circle cx="40" cy="-35.36" r="0.9" fill="#0faa77" opacity="0.915"/>
<circle cx="-42.5" cy="-31.03" r="0.9" fill="#d63e3e" opacity="0.908"/>
<circle cx="-37.5" cy="-31.03" r="0.9" fill="#c13839" opacity="0.871"/>
<circle cx="-32.5" cy="-31.03" r="0.9" fill="#ad3335" opacity="0.837"/>
<circle cx="32.5" cy="-31.03" r="0.9" fill="#0d8760" opacity="0.837"/>
<circle cx="37.5" cy="-31.03" r="0.9" fill="#0e966a" opacity="0.871"/>
<circle cx="42.5" cy="-31.03" r="0.9" fill="#0fa675" opacity="0.908"/>
<circle cx="-45" cy="-26.7" r="0.9" fill="#d53d3e" opacity="0.905"/>
<circle cx="-40" cy="-26.7" r="0.9" fill="#be3839" opacity="0.865"/>
<circle cx="-35" cy="-26.7" r="0.9" fill="#a83234" opacity="0.828"/>
<circle cx="35" cy="-26.7" r="0.9" fill="#0d845e" opacity="0.828"/>
<circle cx="40" cy="-26.7" r="0.9" fill="#0e9469" opacity="0.865"/>
<circle cx="45" cy="-26.7" r="0.9" fill="#0fa574" opacity="0.905"/>
<circle cx="-47.5" cy="-22.37" r="0.9" fill="#d63e3e" opacity="0.906"/>
<circle cx="-42.5" cy="-22.37" r="0.9" fill="#be3739" opacity="0.865"/>
<circle cx="-37.5" cy="-22.37" r="0.9" fill="#a73233" opacity="0.825"/>
<circle cx="-32.5" cy="-22.37" r="0.9" fill="#922c2e" opacity="0.789"/>
<circle cx="32.5" cy="-22.37" r="0.9" fill="#0c7253" opacity="0.789"/>
<circle cx="37.5" cy="-22.37" r="0.9" fill="#0d825d" opacity="0.825"/>
<circle cx="42.5" cy="-22.37" r="0.9" fill="#0e9469" opacity="0.865"/>
<circle cx="47.5" cy="-22.37" r="0.9" fill="#0fa674" opacity="0.906"/>
<circle cx="-50" cy="-18.04" r="0.9" fill="#da3f3f" opacity="0.913"/>
<circle cx="-45" cy="-18.04" r="0.9" fill="#c03839" opacity="0.869"/>
<circle cx="-40" cy="-18.04" r="0.9" fill="#a83233" opacity="0.827"/>
<circle cx="-35" cy="-18.04" r="0.9" fill="#912c2e" opacity="0.788"/>
<circle cx="35" cy="-18.04" r="0.9" fill="#0c7253" opacity="0.788"/>
<circle cx="40" cy="-18.04" r="0.9" fill="#0d835e" opacity="0.827"/>
<circle cx="45" cy="-18.04" r="0.9" fill="#0e956a" opacity="0.869"/>
<circle cx="50" cy="-18.04" r="0.9" fill="#0fa976" opacity="0.913"/>
<circle cx="-52.5" cy="-13.71" r="0.9" fill="#e04040" opacity="0.923"/>
<circle cx="-47.5" cy="-13.71" r="0.9" fill="#c5393a" opacity="0.878"/>
<circle cx="-42.5" cy="-13.71" r="0.9" fill="#ac3334" opacity="0.834"/>
<circle cx="-37.5" cy="-13.71" r="0.9" fill="#942d2f" opacity="0.793"/>
<circle cx="-32.5" cy="-13.71" r="0.9" fill="#7e272a" opacity="0.754"/>
<circle cx="32.5" cy="-13.71" r="0.9" fill="#0c6349" opacity="0.754"/>
<circle cx="37.5" cy="-13.71" r="0.9" fill="#0c7454" opacity="0.793"/>
<circle cx="42.5" cy="-13.71" r="0.9" fill="#0d8660" opacity="0.834"/>
<circle cx="47.5" cy="-13.71" r="0.9" fill="#0e996c" opacity="0.878"/>
<circle cx="52.5" cy="-13.71" r="0.9" fill="#0fad79" opacity="0.923"/>
<circle cx="-55" cy="-9.38" r="0.9" fill="#e84242" opacity="0.938"/>
<circle cx="-50" cy="-9.38" r="0.9" fill="#cd3b3c" opacity="0.891"/>
<circle cx="-45" cy="-9.38" r="0.9" fill="#b33536" opacity="0.846"/>
<circle cx="-40" cy="-9.38" r="0.9" fill="#9a2e30" opacity="0.803"/>
<circle cx="-35" cy="-9.38" r="0.9" fill="#82282b" opacity="0.762"/>
<circle cx="35" cy="-9.38" r="0.9" fill="#0c664b" opacity="0.762"/>
<circle cx="40" cy="-9.38" r="0.9" fill="#0d7857" opacity="0.803"/>
<circle cx="45" cy="-9.38" r="0.9" fill="#0e8b63" opacity="0.846"/>
<circle cx="50" cy="-9.38" r="0.9" fill="#0f9f70" opacity="0.891"/>
<circle cx="55" cy="-9.38" r="0.9" fill="#10b47e" opacity="0.938"/>
<circle cx="-52.5" cy="-5.05" r="0.9" fill="#d73e3e" opacity="0.909"/>
<circle cx="-47.5" cy="-5.05" r="0.9" fill="#bc3738" opacity="0.862"/>
<circle cx="-42.5" cy="-5.05" r="0.9" fill="#a23132" opacity="0.818"/>
<circle cx="-37.5" cy="-5.05" r="0.9" fill="#8a2a2c" opacity="0.775"/>
<circle cx="-32.5" cy="-5.05" r="0.9" fill="#722427" opacity="0.735"/>
<circle cx="32.5" cy="-5.05" r="0.9" fill="#0b5b43" opacity="0.735"/>
<circle cx="37.5" cy="-5.05" r="0.9" fill="#0c6c4f" opacity="0.775"/>
<circle cx="42.5" cy="-5.05" r="0.9" fill="#0d7f5b" opacity="0.818"/>
<circle cx="47.5" cy="-5.05" r="0.9" fill="#0e9268" opacity="0.862"/>
<circle cx="52.5" cy="-5.05" r="0.9" fill="#0fa775" opacity="0.909"/>
<circle cx="-55" cy="-0.72" r="0.9" fill="#e44141" opacity="0.931"/>
<circle cx="-50" cy="-0.72" r="0.9" fill="#c83a3b" opacity="0.883"/>
<circle cx="-45" cy="-0.72" r="0.9" fill="#ae3335" opacity="0.838"/>
<circle cx="-40" cy="-0.72" r="0.9" fill="#942d2f" opacity="0.794"/>
<circle cx="-35" cy="-0.72" r="0.9" fill="#7c2729" opacity="0.752"/>
<circle cx="35" cy="-0.72" r="0.9" fill="#0c6248" opacity="0.752"/>
<circle cx="40" cy="-0.72" r="0.9" fill="#0c7454" opacity="0.794"/>
<circle cx="45" cy="-0.72" r="0.9" fill="#0d8861" opacity="0.838"/>
<circle cx="50" cy="-0.72" r="0.9" fill="#0e9b6e" opacity="0.883"/>
<circle cx="55" cy="-0.72" r="0.9" fill="#10b07b" opacity="0.931"/>
<circle cx="-52.5" cy="3.61" r="0.9" fill="#d63e3e" opacity="0.908"/>
<circle cx="-47.5" cy="3.61" r="0.9" fill="#bc3738" opacity="0.861"/>
<circle cx="-42.5" cy="3.61" r="0.9" fill="#a23032" opacity="0.816"/>
<circle cx="-37.5" cy="3.61" r="0.9" fill="#892a2c" opacity="0.774"/>
<circle cx="-32.5" cy="3.61" r="0.9" fill="#722427" opacity="0.734"/>
<circle cx="32.5" cy="3.61" r="0.9" fill="#0b5a43" opacity="0.734"/>
<circle cx="37.5" cy="3.61" r="0.9" fill="#0c6c4e" opacity="0.774"/>
<circle cx="42.5" cy="3.61" r="0.9" fill="#0d7e5b" opacity="0.816"/>
<circle cx="47.5" cy="3.61" r="0.9" fill="#0e9267" opacity="0.861"/>
<circle cx="52.5" cy="3.61" r="0.9" fill="#0fa675" opacity="0.908"/>
<circle cx="-55" cy="7.94" r="0.9" fill="#e74242" opacity="0.936"/>
<circle cx="-50" cy="7.94" r="0.9" fill="#cb3b3c" opacity="0.889"/>
<circle cx="-45" cy="7.94" r="0.9" fill="#b13436" opacity="0.844"/>
<circle cx="-40" cy="7.94" r="0.9" fill="#982e30" opacity="0.8"/>
<circle cx="-35" cy="7.94" r="0.9" fill="#80282a" opacity="0.759"/>
<circle cx="35" cy="7.94" r="0.9" fill="#0c654a" opacity="0.759"/>
<circle cx="40" cy="7.94" r="0.9" fill="#0d7756" opacity="0.8"/>
<circle cx="45" cy="7.94" r="0.9" fill="#0e8a62" opacity="0.844"/>
<circle cx="50" cy="7.94" r="0.9" fill="#0f9e6f" opacity="0.889"/>
<circle cx="55" cy="7.94" r="0.9" fill="#10b37d" opacity="0.936"/>
<circle cx="-52.5" cy="12.27" r="0.9" fill="#de4040" opacity="0.92"/>
<circle cx="-47.5" cy="12.27" r="0.9" fill="#c3393a" opacity="0.874"/>
<circle cx="-42.5" cy="12.27" r="0.9" fill="#aa3234" opacity="0.83"/>
<circle cx="-37.5" cy="12.27" r="0.9" fill="#922c2e" opacity="0.789"/>
<circle cx="-32.5" cy="12.27" r="0.9" fill="#7b2629" opacity="0.75"/>
<circle cx="32.5" cy="12.27" r="0.9" fill="#0b6147" opacity="0.75"/>
<circle cx="37.5" cy="12.27" r="0.9" fill="#0c7253" opacity="0.789"/>
<circle cx="42.5" cy="12.27" r="0.9" fill="#0d845f" opacity="0.83"/>
<circle cx="47.5" cy="12.27" r="0.9" fill="#0e986b" opacity="0.874"/>
<circle cx="52.5" cy="12.27" r="0.9" fill="#0fac78" opacity="0.92"/>
<circle cx="-50" cy="16.6" r="0.9" fill="#d73e3e" opacity="0.908"/>
<circle cx="-45" cy="16.6" r="0.9" fill="#bd3738" opacity="0.864"/>
<circle cx="-40" cy="16.6" r="0.9" fill="#a53133" opacity="0.822"/>
<circle cx="-35" cy="16.6" r="0.9" fill="#8e2b2d" opacity="0.783"/>
<circle cx="35" cy="16.6" r="0.9" fill="#0c7051" opacity="0.783"/>
<circle cx="40" cy="16.6" r="0.9" fill="#0d815c" opacity="0.822"/>
<circle cx="45" cy="16.6" r="0.9" fill="#0e9368" opacity="0.864"/>
<circle cx="50" cy="16.6" r="0.9" fill="#0fa775" opacity="0.908"/>
<circle cx="-47.5" cy="20.93" r="0.9" fill="#d33d3d" opacity="0.901"/>
<circle cx="-42.5" cy="20.93" r="0.9" fill="#ba3738" opacity="0.859"/>
<circle cx="-37.5" cy="20.93" r="0.9" fill="#a33132" opacity="0.819"/>
<circle cx="-32.5" cy="20.93" r="0.9" fill="#8b6c0b" opacity="0.782"/>
<circle cx="32.5" cy="20.93" r="0.9" fill="#8b6c0b" opacity="0.782"/>
<circle cx="37.5" cy="20.93" r="0.9" fill="#0d7f5b" opacity="0.819"/>
<circle cx="42.5" cy="20.93" r="0.9" fill="#0e9167" opacity="0.859"/>
<circle cx="47.5" cy="20.93" r="0.9" fill="#0fa373" opacity="0.901"/>
<circle cx="-45" cy="25.26" r="0.9" fill="#d13c3d" opacity="0.898"/>
<circle cx="-40" cy="25.26" r="0.9" fill="#b68c09" opacity="0.858"/>
<circle cx="-35" cy="25.26" r="0.9" fill="#a17c0a" opacity="0.821"/>
<circle cx="35" cy="25.26" r="0.9" fill="#a17c0a" opacity="0.821"/>
<circle cx="40" cy="25.26" r="0.9" fill="#b68c09" opacity="0.858"/>
<circle cx="45" cy="25.26" r="0.9" fill="#0fa272" opacity="0.898"/>
<circle cx="-47.5" cy="29.59" r="0.9" fill="#e4af08" opacity="0.94"/>
<circle cx="-42.5" cy="29.59" r="0.9" fill="#ce9e09" opacity="0.9"/>
<circle cx="-37.5" cy="29.59" r="0.9" fill="#b88e09" opacity="0.862"/>
<circle cx="-32.5" cy="29.59" r="0.9" fill="#a57f0a" opacity="0.828"/>
<circle cx="32.5" cy="29.59" r="0.9" fill="#a57f0a" opacity="0.828"/>
<circle cx="37.5" cy="29.59" r="0.9" fill="#b88e09" opacity="0.862"/>
<circle cx="42.5" cy="29.59" r="0.9" fill="#ce9e09" opacity="0.9"/>
<circle cx="47.5" cy="29.59" r="0.9" fill="#e4af08" opacity="0.94"/>
<circle cx="-40" cy="33.92" r="0.9" fill="#d1a009" opacity="0.906"/>
<circle cx="-35" cy="33.92" r="0.9" fill="#bd9209" opacity="0.871"/>
<circle cx="35" cy="33.92" r="0.9" fill="#bd9209" opacity="0.871"/>
<circle cx="40" cy="33.92" r="0.9" fill="#d1a009" opacity="0.906"/>
<circle cx="-37.5" cy="38.25" r="0.9" fill="#d7a508" opacity="0.917"/>
<circle cx="-32.5" cy="38.25" r="0.9" fill="#c59709" opacity="0.885"/>
<circle cx="32.5" cy="38.25" r="0.9" fill="#c59709" opacity="0.885"/>
<circle cx="37.5" cy="38.25" r="0.9" fill="#d7a508" opacity="0.917"/>
<circle cx="-35" cy="42.58" r="0.9" fill="#e0ab08" opacity="0.932"/>
<circle cx="35" cy="42.58" r="0.9" fill="#e0ab08" opacity="0.932"/>
<circle cx="-27.5" cy="46.91" r="0.9" fill="#dca808" opacity="0.924"/>
<circle cx="-22.5" cy="46.91" r="0.9" fill="#cf9f09" opacity="0.902"/>
<circle cx="-17.5" cy="46.91" r="0.9" fill="#c49709" opacity="0.883"/>
<circle cx="-12.5" cy="46.91" r="0.9" fill="#bc9109" opacity="0.87"/>
<circle cx="-7.5" cy="46.91" r="0.9" fill="#b78d09" opacity="0.86"/>
<circle cx="-2.5" cy="46.91" r="0.9" fill="#b48b09" opacity="0.855"/>
<circle cx="2.5" cy="46.91" r="0.9" fill="#b48b09" opacity="0.855"/>
<circle cx="7.5" cy="46.91" r="0.9" fill="#b78d09" opacity="0.86"/>
<circle cx="12.5" cy="46.91" r="0.9" fill="#bc9109" opacity="0.87"/>
<circle cx="17.5" cy="46.91" r="0.9" fill="#c49709" opacity="0.883"/>
<circle cx="22.5" cy="46.91" r="0.9" fill="#cf9f09" opacity="0.902"/>
<circle cx="27.5" cy="46.91" r="0.9" fill="#dca808" opacity="0.924"/>
<circle cx="-20" cy="51.24" r="0.9" fill="#dfab08" opacity="0.931"/>
<circle cx="-15" cy="51.24" r="0.9" fill="#d6a409" opacity="0.915"/>
<circle cx="-10" cy="51.24" r="0.9" fill="#d09f09" opacity="0.904"/>
<circle cx="-5" cy="51.24" r="0.9" fill="#cc9c09" opacity="0.897"/>
<circle cx="0" cy="51.24" r="0.9" fill="#cb9b09" opacity="0.895"/>
<circle cx="5" cy="51.24" r="0.9" fill="#cc9c09" opacity="0.897"/>
<circle cx="10" cy="51.24" r="0.9" fill="#d09f09" opacity="0.904"/>
<circle cx="15" cy="51.24" r="0.9" fill="#d6a409" opacity="0.915"/>
<circle cx="20" cy="51.24" r="0.9" fill="#dfab08" opacity="0.931"/>
<circle cx="-2.5" cy="55.57" r="0.9" fill="#e2ad08" opacity="0.937"/>
<circle cx="2.5" cy="55.57" r="0.9" fill="#e2ad08" opacity="0.937"/>
</g>
<path d="M 0.0,-58.0 A 58,58 0 0,1 50.2295,29.0" fill="none" stroke="#10b981" stroke-width="1.0" stroke-dasharray="6,4" stroke-linecap="round" opacity="0.85"/>
<path d="M 50.2295,29.0 A 58,58 0 0,1 -50.2295,29.0" fill="none" stroke="#eab308" stroke-width="1.0" stroke-dasharray="6,4" stroke-linecap="round" opacity="0.85"/>
<path d="M -50.2295,29.0 A 58,58 0 0,1 0.0,-58.0" fill="none" stroke="#ef4444" stroke-width="1.0" stroke-dasharray="6,4" stroke-linecap="round" opacity="0.85"/>
<circle cx="0.0" cy="-58.0" r="2" fill="#10b981"/>
<circle cx="50.2295" cy="29.0" r="2" fill="#eab308"/>
<circle cx="-50.2295" cy="29.0" r="2" fill="#ef4444"/>
<rect x="-20" y="-42" width="40" height="30" rx="4" fill="none" stroke="#10b981" stroke-width="2.5"/>
<line x1="-10" y1="-12" x2="-10" y2="6" stroke="#eab308" stroke-width="3.5" stroke-linecap="round"/>
<line x1="10" y1="-12" x2="10" y2="6" stroke="#ef4444" stroke-width="3.5" stroke-linecap="round"/>
<rect x="-26" y="10" width="52" height="30" rx="6" fill="none" stroke="#10b981" stroke-width="2.5"/>
<rect x="-14" y="17" width="12" height="16" rx="2" fill="#eab308"/>
<rect x="2" y="17" width="12" height="16" rx="2" fill="#ef4444"/>
</svg>