<svg xmlns="http://www.w3.org/2000/svg" viewBox="-100 -100 200 200" width="48" height="48" role="img" aria-label="PortDrop">
<defs><clipPath id="ic"><circle cx="0" cy="0" r="57"/></clipPath></defs>
<path d="M 0.0,-69.0 A 69,69 0 0,1 59.7558,34.5" fill="none" stroke="#10b981" stroke-width="1.8" stroke-linecap="round"/>
<path d="M 59.7558,34.5 A 69,69 0 0,1 -59.7558,34.5" fill="none" stroke="#eab308" stroke-width="1.8" stroke-linecap="round"/>
<path d="M -59.7558,34.5 A 69,69 0 0,1 0.0,-69.0" fill="none" stroke="#ef4444" stroke-width="1.8" stroke-linecap="round"/>
<circle cx="0.0" cy="-69.0" r="3" fill="#10b981"/>
<circle cx="59.7558" cy="34.5" r="3" fill="#eab308"/>
<circle cx="-59.7558" cy="34.5" r="3" fill="#ef4444"/>
<g clip-path="url(#ic)">
<circle cx="-15" cy="-52.68" r="0.9" fill="#ef4444" opacity="0.85"/>
<circle cx="-10" cy="-52.68" r="0.9" fill="#ef4444" opacity="0.85"/>
<circle cx="-5" cy="-52.68" r="0.9" fill="#ef4444" opacity="0.85"/>
<circle cx="0" cy="-52.68" r="0.9" fill="#10b981" opacity="0.85"/>
<circle cx="5" cy="-52.68" r="0.9" fill="#10b981" opacity="0.85"/>
<circle cx="10" cy="-52.68" r="0.9" fill="#10b981" opacity="0.85"/>
<circle cx="15" cy="-52.68" r="0.9" fill="#10b981" opacity="0.85"/>
<circle cx="-27.5" cy="-48.35" r="0.9" fill="#ef4444" opacity="0.85"/>
<circle cx="-22.5" cy="-48.35" r="0.9" fill="#ef4444" opacity="0.85"/>
<circle cx="-17.5" cy="-48.35" r="0.9" fill="#ef4444" opacity="0.85"/>
<circle cx="-12.5" cy="-48.35" r="0.9" fill="#ef4444" opacity="0.831"/>
<circle cx="-7.5" cy="-48.35" r="0.9" fill="#ef4444" opacity="0.807"/>
<circle cx="-2.5" cy="-48.35" r="0.9" fill="#ef4444" opacity="0.795"/>
<circle cx="2.5" cy="-48.35" r="0.9" fill="#10b981" opacity="0.795"/>
<circle cx="7.5" cy="-48.35" r="0.9" fill="#10b981" opacity="0.807"/>
<circle cx="12.5" cy="-48.35" r="0.9" fill="#10b981" opacity="0.831"/>
<circle cx="17.5" cy="-48.35" r="0.9" fill="#10b981" opacity="0.85"/>
<circle cx="22.5" cy="-48.35" r="0.9" fill="#10b981" opacity="0.85"/>
<circle cx="27.5" cy="-48.35" r="0.9" fill="#10b981" opacity="0.85"/>
<circle cx="-37.5" cy="-39.69" r="0.9" fill="#ef4444" opacity="0.85"/>
<circle cx="-32.5" cy="-39.69" r="0.9" fill="#ef4444" opacity="0.85"/>
<circle cx="32.5" cy="-39.69" r="0.9" fill="#10b981" opacity="0.85"/>
<circle cx="37.5" cy="-39.69" r="0.9" fill="#10b981" opacity="0.85"/>
<circle cx="-40" cy="-35.36" r="0.9" fill="#ef4444" opacity="0.85"/>
<circle cx="-35" cy="-35.36" r="0.9" fill="#ef4444" opacity="0.827"/>
<circle cx="35" cy="-35.36" r="0.9" fill="#10b981" opacity="0.827"/>
<circle cx="40" cy="-35.36" r="0.9" fill="#10b981" opacity="0.85"/>
<circle cx="-42.5" cy="-31.03" r="0.9" fill="#ef4444" opacity="0.85"/>
<circle cx="-37.5" cy="-31.03" r="0.9" fill="#ef4444" opacity="0.802"/>
<circle cx="-32.5" cy="-31.03" r="0.9" fill="#ef4444" opacity="0.716"/>
<circle cx="32.5" cy="-31.03" r="0.9" fill="#10b981" opacity="0.716"/>
<circle cx="37.5" cy="-31.03" r="0.9" fill="#10b981" opacity="0.802"/>
<circle cx="42.5" cy="-31.03" r="0.9" fill="#10b981" opacity="0.85"/>
<circle cx="-45" cy="-26.7" r="0.9" fill="#ef4444" opacity="0.85"/>
<circle cx="-40" cy="-26.7" r="0.9" fill="#ef4444" opacity="0.789"/>
<circle cx="-35" cy="-26.7" r="0.9" fill="#ef4444" opacity="0.696"/>
<circle cx="35" cy="-26.7" r="0.9" fill="#10b981" opacity="0.696"/>
<circle cx="40" cy="-26.7" r="0.9" fill="#10b981" opacity="0.789"/>
<circle cx="45" cy="-26.7" r="0.9" fill="#10b981" opacity="0.85"/>
<circle cx="-47.5" cy="-22.37" r="0.9" fill="#ef4444" opacity="0.85"/>
<circle cx="-42.5" cy="-22.37" r="0.9" fill="#ef4444" opacity="0.787"/>
<circle cx="-37.5" cy="-22.37" r="0.9" fill="#ef4444" opacity="0.689"/>
<circle cx="-32.5" cy="-22.37" r="0.9" fill="#ef4444" opacity="0.597"/>
<circle cx="32.5" cy="-22.37" r="0.9" fill="#10b981" opacity="0.597"/>
<circle cx="37.5" cy="-22.37" r="0.9" fill="#10b981" opacity="0.689"/>
<circle cx="42.5" cy="-22.37" r="0.9" fill="#10b981" opacity="0.787"/>
<circle cx="47.5" cy="-22.37" r="0.9" fill="#10b981" opacity="0.85"/>
<circle cx="-50" cy="-18.04" r="0.9" fill="#ef4444" opacity="0.85"/>
<circle cx="-45" cy="-18.04" r="0.9" fill="#ef4444" opacity="0.798"/>
<circle cx="-40" cy="-18.04" r="0.9" fill="#ef4444" opacity="0.694"/>
<circle cx="-35" cy="-18.04" r="0.9" fill="#ef4444" opacity="0.596"/>
<circle cx="35" cy="-18.04" r="0.9" fill="#10b981" opacity="0.596"/>
<circle cx="40" cy="-18.04" r="0.9" fill="#10b981" opacity="0.694"/>
<circle cx="45" cy="-18.04" r="0.9" fill="#10b981" opacity="0.798"/>
<circle cx="50" cy="-18.04" r="0.9" fill="#10b981" opacity="0.85"/>
<circle cx="-52.5" cy="-13.71" r="0.9" fill="#ef4444" opacity="0.85"/>
<circle cx="-47.5" cy="-13.71" r="0.9" fill="#ef4444" opacity="0.819"/>
<circle cx="-42.5" cy="-13.71" r="0.9" fill="#ef4444" opacity="0.71"/>
<circle cx="-37.5" cy="-13.71" r="0.9" fill="#ef4444" opacity="0.607"/>
<circle cx="-32.5" cy="-13.71" r="0.9" fill="#ef4444" opacity="0.511"/>
<circle cx="32.5" cy="-13.71" r="0.9" fill="#10b981" opacity="0.511"/>
<circle cx="37.5" cy="-13.71" r="0.9" fill="#10b981" opacity="0.607"/>
<circle cx="42.5" cy="-13.71" r="0.9" fill="#10b981" opacity="0.71"/>
<circle cx="47.5" cy="-13.71" r="0.9" fill="#10b981" opacity="0.819"/>
<circle cx="52.5" cy="-13.71" r="0.9" fill="#10b981" opacity="0.85"/>
<circle cx="-55" cy="-9.38" r="0.9" fill="#ef4444" opacity="0.85"/>
<circle cx="-50" cy="-9.38" r="0.9" fill="#ef4444" opacity="0.85"/>
<circle cx="-45" cy="-9.38" r="0.9" fill="#ef4444" opacity="0.739"/>
<circle cx="-40" cy="-9.38" r="0.9" fill="#ef4444" opacity="0.633"/>
<circle cx="-35" cy="-9.38" r="0.9" fill="#ef4444" opacity="0.531"/>
<circle cx="35" cy="-9.38" r="0.9" fill="#10b981" opacity="0.531"/>
<circle cx="40" cy="-9.38" r="0.9" fill="#10b981" opacity="0.633"/>
<circle cx="45" cy="-9.38" r="0.9" fill="#10b981" opacity="0.739"/>
<circle cx="50" cy="-9.38" r="0.9" fill="#10b981" opacity="0.85"/>
<circle cx="55" cy="-9.38" r="0.9" fill="#10b981" opacity="0.85"/>
<circle cx="-52.5" cy="-5.05" r="0.9" fill="#ef4444" opacity="0.85"/>
<circle cx="-47.5" cy="-5.05" r="0.9" fill="#ef4444" opacity="0.781"/>
<circle cx="-42.5" cy="-5.05" r="0.9" fill="#ef4444" opacity="0.67"/>
<circle cx="-37.5" cy="-5.05" r="0.9" fill="#ef4444" opacity="0.564"/>
<circle cx="-32.5" cy="-5.05" r="0.9" fill="#ef4444" opacity="0.463"/>
<circle cx="32.5" cy="-5.05" r="0.9" fill="#10b981" opacity="0.463"/>
<circle cx="37.5" cy="-5.05" r="0.9" fill="#10b981" opacity="0.564"/>
<circle cx="42.5" cy="-5.05" r="0.9" fill="#10b981" opacity="0.67"/>
<circle cx="47.5" cy="-5.05" r="0.9" fill="#10b981" opacity="0.781"/>
<circle cx="52.5" cy="-5.05" r="0.9" fill="#10b981" opacity="0.85"/>
<circle cx="-55" cy="-0.72" r="0.9" fill="#ef4444" opacity="0.85"/>
<circle cx="-50" cy="-0.72" r="0.9" fill="#ef4444" opacity="0.832"/>
<circle cx="-45" cy="-0.72" r="0.9" fill="#ef4444" opacity="0.719"/>
<circle cx="-40" cy="-0.72" r="0.9" fill="#ef4444" opacity="0.609"/>
<circle cx="-35" cy="-0.72" r="0.9" fill="#ef4444" opacity="0.505"/>
<circle cx="35" cy="-0.72" r="0.9" fill="#10b981" opacity="0.505"/>
<circle cx="40" cy="-0.72" r="0.9" fill="#10b981" opacity="0.609"/>
<circle cx="45" cy="-0.72" r="0.9" fill="#10b981" opacity="0.719"/>
<circle cx="50" cy="-0.72" r="0.9" fill="#10b981" opacity="0.832"/>
<circle cx="55" cy="-0.72" r="0.9" fill="#10b981" opacity="0.85"/>
<circle cx="-52.5" cy="3.61" r="0.9" fill="#ef4444" opacity="0.85"/>
<circle cx="-47.5" cy="3.61" r="0.9" fill="#ef4444" opacity="0.778"/>
<circle cx="-42.5" cy="3.61" r="0.9" fill="#ef4444" opacity="0.666"/>
<circle cx="-37.5" cy="3.61" r="0.9" fill="#ef4444" opacity="0.56"/>
<circle cx="-32.5" cy="3.61" r="0.9" fill="#ef4444" opacity="0.46"/>
<circle cx="32.5" cy="3.61" r="0.9" fill="#10b981" opacity="0.46"/>
<circle cx="37.5" cy="3.61" r="0.9" fill="#10b981" opacity="0.56"/>
<circle cx="42.5" cy="3.61" r="0.9" fill="#10b981" opacity="0.666"/>
<circle cx="47.5" cy="3.61" r="0.9" fill="#10b981" opacity="0.778"/>
<circle cx="52.5" cy="3.61" r="0.9" fill="#10b981" opacity="0.85"/>
<circle cx="-55" cy="7.94" r="0.9" fill="#ef4444" opacity="0.85"/>
<circle cx="-50" cy="7.94" r="0.9" fill="#ef4444" opacity="0.847"/>
<circle cx="-45" cy="7.94" r="0.9" fill="#ef4444" opacity="0.734"/>
<circle cx="-40" cy="7.94" r="0.9" fill="#ef4444" opacity="0.625"/>
<circle cx="-35" cy="7.94" r="0.9" fill="#ef4444" opacity="0.524"/>
<circle cx="35" cy="7.94" r="0.9" fill="#10b981" opacity="0.524"/>
<circle cx="40" cy="7.94" r="0.9" fill="#10b981" opacity="0.625"/>
<circle cx="45" cy="7.94" r="0.9" fill="#10b981" opacity="0.734"/>
<circle cx="50" cy="7.94" r="0.9" fill="#10b981" opacity="0.847"/>
<circle cx="55" cy="7.94" r="0.9" fill="#10b981" opacity="0.85"/>
<circle cx="-52.5" cy="12.27" r="0.9" fill="#ef4444" opacity="0.85"/>
<circle cx="-47.5" cy="12.27" r="0.9" fill="#ef4444" opacity="0.811"/>
<circle cx="-42.5" cy="12.27" r="0.9" fill="#ef4444" opacity="0.701"/>
<circle cx="-37.5" cy="12.27" r="0.9" fill="#ef4444" opacity="0.597"/>
<circle cx="-32.5" cy="12.27" r="0.9" fill="#ef4444" opacity="0.499"/>
<circle cx="32.5" cy="12.27" r="0.9" fill="#10b981" opacity="0.499"/>
<circle cx="37.5" cy="12.27" r="0.9" fill="#10b981" opacity="0.597"/>
<circle cx="42.5" cy="12.27" r="0.9" fill="#10b981" opacity="0.701"/>
<circle cx="47.5" cy="12.27" r="0.9" fill="#10b981" opacity="0.811"/>
<circle cx="52.5" cy="12.27" r="0.9" fill="#10b981" opacity="0.85"/>
<circle cx="-50" cy="16.6" r="0.9" fill="#ef4444" opacity="0.85"/>
<circle cx="-45" cy="16.6" r="0.9" fill="#ef4444" opacity="0.785"/>
<circle cx="-40" cy="16.6" r="0.9" fill="#ef4444" opacity="0.681"/>
<circle cx="-35" cy="16.6" r="0.9" fill="#ef4444" opacity="0.583"/>
<circle cx="35" cy="16.6" r="0.9" fill="#10b981" opacity="0.583"/>
<circle cx="40" cy="16.6" r="0.9" fill="#10b981" opacity="0.681"/>
<circle cx="45" cy="16.6" r="0.9" fill="#10b981" opacity="0.785"/>
<circle cx="50" cy="16.6" r="0.9" fill="#10b981" opacity="0.85"/>
<circle cx="-47.5" cy="20.93" r="0.9" fill="#ef4444" opacity="0.85"/>
<circle cx="-42.5" cy="20.93" r="0.9" fill="#ef4444" opacity="0.772"/>
<circle cx="-37.5" cy="20.93" r="0.9" fill="#ef4444" opacity="0.672"/>
<circle cx="-32.5" cy="20.93" r="0.9" fill="#eab308" opacity="0.58"/>
<circle cx="32.5" cy="20.93" r="0.9" fill="#eab308" opacity="0.58"/>
<circle cx="37.5" cy="20.93" r="0.9" fill="#10b981" opacity="0.672"/>
<circle cx="42.5" cy="20.93" r="0.9" fill="#10b981" opacity="0.772"/>
<circle cx="47.5" cy="20.93" r="0.9" fill="#10b981" opacity="0.85"/>
<circle cx="-45" cy="25.26" r="0.9" fill="#ef4444" opacity="0.85"/>
<circle cx="-40" cy="25.26" r="0.9" fill="#eab308" opacity="0.77"/>
<circle cx="-35" cy="25.26" r="0.9" fill="#eab308" opacity="0.677"/>
<circle cx="35" cy="25.26" r="0.9" fill="#eab308" opacity="0.677"/>
<circle cx="40" cy="25.26" r="0.9" fill="#eab308" opacity="0.77"/>
<circle cx="45" cy="25.26" r="0.9" fill="#10b981" opacity="0.85"/>
<circle cx="-47.5" cy="29.59" r="0.9" fill="#eab308" opacity="0.85"/>
<circle cx="-42.5" cy="29.59" r="0.9" fill="#eab308" opacity="0.85"/>
<circle cx="-37.5" cy="29.59" r="0.9" fill="#eab308" opacity="0.781"/>
<circle cx="-32.5" cy="29.59" r="0.9" fill="#eab308" opacity="0.695"/>
<circle cx="32.5" cy="29.59" r="0.9" fill="#eab308" opacity="0.695"/>
<circle cx="37.5" cy="29.59" r="0.9" fill="#eab308" opacity="0.781"/>
<circle cx="42.5" cy="29.59" r="0.9" fill="#eab308" opacity="0.85"/>
<circle cx="47.5" cy="29.59" r="0.9" fill="#eab308" opacity="0.85"/>
<circle cx="-40" cy="33.92" r="0.9" fill="#eab308" opacity="0.85"/>
<circle cx="-35" cy="33.92" r="0.9" fill="#eab308" opacity="0.803"/>
<circle cx="35" cy="33.92" r="0.9" fill="#eab308" opacity="0.803"/>
<circle cx="40" cy="33.92" r="0.9" fill="#eab308" opacity="0.85"/>
<circle cx="-37.5" cy="38.25" r="0.9" fill="#eab308" opacity="0.85"/>
<circle cx="-32.5" cy="38.25" r="0.9" fill="#eab308" opacity="0.837"/>
<circle cx="32.5" cy="38.25" r="0.9" fill="#eab308" opacity="0.837"/>
<circle cx="37.5" cy="38.25" r="0.9" fill="#eab308" opacity="0.85"/>
<circle cx="-35" cy="42.58" r="0.9" fill="#eab308" opacity="0.85"/>
<circle cx="35" cy="42.58" r="0.9" fill="#eab308" opacity="0.85"/>
<circle cx="-27.5" cy="46.91" r="0.9" fill="#eab308" opacity="0.85"/>
<circle cx="-22.5" cy="46.91" r="0.9" fill="#eab308" opacity="0.85"/>
<circle cx="-17.5" cy="46.91" r="0.9" fill="#eab308" opacity="0.833"/>
<circle cx="-12.5" cy="46.91" r="0.9" fill="#eab308" opacity="0.799"/>
<circle cx="-7.5" cy="46.91" r="0.9" fill="#eab308" opacity="0.774"/>
<circle cx="-2.5" cy="46.91" r="0.9" fill="#eab308" opacity="0.763"/>
<circle cx="2.5" cy="46.91" r="0.9" fill="#eab308" opacity="0.763"/>
<circle cx="7.5" cy="46.91" r="0.9" fill="#eab308" opacity="0.774"/>
<circle cx="12.5" cy="46.91" r="0.9" fill="#eab308" opacity="0.799"/>
<circle cx="17.5" cy="46.91" r="0.9" fill="#eab308" opacity="0.833"/>
<circle cx="22.5" cy="46.91" r="0.9" fill="#eab308" opacity="0.85"/>
<circle cx="27.5" cy="46.91" r="0.9" fill="#eab308" opacity="0.85"/>
<circle cx="-20" cy="51.24" r="0.9" fill="#eab308" opacity="0.85"/>
<circle cx="-15" cy="51.24" r="0.9" fill="#eab308" opacity="0.85"/>
<circle cx="-10" cy="51.24" r="0.9" fill="#eab308" opacity="0.85"/>
<circle cx="-5" cy="51.24" r="0.9" fill="#eab308" opacity="0.85"/>
<circle cx="0" cy="51.24" r="0.9" fill="#eab308" opacity="0.85"/>
<circle cx="5" cy="51.24" r="0.9" fill="#eab308" opacity="0.85"/>
<circle cx="10" cy="51.24" r="0.9" fill="#eab308" opacity="0.85"/>
<circle cx="15" cy="51.24" r="0.9" fill="#eab308" opacity="0.85"/>
<circle cx="20" cy="51.24" r="0.9" fill="#eab308" opacity="0.85"/>
<circle cx="-2.5" cy="55.57" r="0.9" fill="#eab308" opacity="0.85"/>
<circle cx="2.5" cy="55.57" r="0.9" fill="#eab308" opacity="0.85"/>
</g>
<path d="M 0.0,-58.0 A 58,58 0 0,1 50.2295,29.0" fill="none" stroke="#10b981" stroke-width="1.0" stroke-dasharray="6,4" stroke-linecap="round" opacity="0.85"/>
<path d="M 50.2295,29.0 A 58,58 0 0,1 -50.2295,29.0" fill="none" stroke="#eab308" stroke-width="1.0" stroke-dasharray="6,4" stroke-linecap="round" opacity="0.85"/>
<path d="M -50.2295,29.0 A 58,58 0 0,1 0.0,-58.0" fill="none" stroke="#ef4444" stroke-width="1.0" stroke-dasharray="6,4" stroke-linecap="round" opacity="0.85"/>
<circle cx="0.0" cy="-58.0" r="2" fill="#10b981"/>
<circle cx="50.2295" cy="29.0" r="2" fill="#eab308"/>
<circle cx="-50.2295" cy="29.0" r="2" fill="#ef4444"/>
<rect x="-20" y="-42" width="40" height="30" rx="4" fill="none" stroke="#10b981" stroke-width="2.5"/>
<line x1="-10" y1="-12" x2="-10" y2="6" stroke="#eab308" stroke-width="3.5" stroke-linecap="round"/>
<line x1="10" y1="-12" x2="10" y2="6" stroke="#ef4444" stroke-width="3.5" stroke-linecap="round"/>
<rect x="-26" y="10" width="52" height="30" rx="6" fill="none" stroke="#10b981" stroke-width="2.5"/>
<rect x="-14" y="17" width="12" height="16" rx="2" fill="#eab308"/>
<rect x="2" y="17" width="12" height="16" rx="2" fill="#ef4444"/>
</svg>